<mxfile host="" modified="2021-02-14T21:27:09.741Z" agent="5.0 (Macintosh; Intel Mac OS X 10_16_0) AppleWebKit/537.36 (KHTML, like Gecko) Chrome/84.0.4147.105 Safari/537.36" etag="oFop15nQJ42AID4zNjE7" version="13.7.9" type="embed"><diagram id="7EgVlm1Kz6B94h_he696" name="Page-1"><mxGraphModel dx="1405" dy="1705" grid="1" gridSize="10" guides="1" tooltips="1" connect="1" arrows="1" fold="1" page="1" pageScale="1" pageWidth="850" pageHeight="1100" math="0" shadow="0"><root><mxCell id="0"/><mxCell id="1" parent="0"/><mxCell id="2" value="Simple Broker" style="ellipse;whiteSpace=wrap;html=1;" parent="1" vertex="1"><mxGeometry x="130" y="140" width="570" height="80" as="geometry"/></mxCell><mxCell id="12" style="edgeStyle=orthogonalEdgeStyle;orthogonalLoop=1;jettySize=auto;html=1;entryX=0;entryY=1;entryDx=0;entryDy=0;curved=1;" parent="1" source="3" target="9" edge="1"><mxGeometry relative="1" as="geometry"/></mxCell><mxCell id="3" value="Producer1" style="ellipse;whiteSpace=wrap;html=1;" parent="1" vertex="1"><mxGeometry x="60" y="410" width="120" height="80" as="geometry"/></mxCell><mxCell id="13" style="edgeStyle=orthogonalEdgeStyle;curved=1;orthogonalLoop=1;jettySize=auto;html=1;entryX=0.75;entryY=1;entryDx=0;entryDy=0;" parent="1" source="4" target="9" edge="1"><mxGeometry relative="1" as="geometry"/></mxCell><mxCell id="4" value="Producer2" style="ellipse;whiteSpace=wrap;html=1;" parent="1" vertex="1"><mxGeometry x="260" y="410" width="120" height="80" as="geometry"/></mxCell><mxCell id="14" style="edgeStyle=orthogonalEdgeStyle;curved=1;orthogonalLoop=1;jettySize=auto;html=1;entryX=0.25;entryY=1;entryDx=0;entryDy=0;" parent="1" source="5" target="11" edge="1"><mxGeometry relative="1" as="geometry"/></mxCell><mxCell id="5" value="Producer3" style="ellipse;whiteSpace=wrap;html=1;" parent="1" vertex="1"><mxGeometry x="470" y="410" width="120" height="80" as="geometry"/></mxCell><mxCell id="15" style="edgeStyle=orthogonalEdgeStyle;curved=1;orthogonalLoop=1;jettySize=auto;html=1;entryX=0.75;entryY=1;entryDx=0;entryDy=0;" parent="1" source="6" target="11" edge="1"><mxGeometry relative="1" as="geometry"/></mxCell><mxCell id="6" value="Producer4" style="ellipse;whiteSpace=wrap;html=1;" parent="1" vertex="1"><mxGeometry x="680" y="410" width="120" height="80" as="geometry"/></mxCell><mxCell id="19" style="edgeStyle=orthogonalEdgeStyle;curved=1;orthogonalLoop=1;jettySize=auto;html=1;entryX=0.5;entryY=1;entryDx=0;entryDy=0;" parent="1" source="9" target="16" edge="1"><mxGeometry relative="1" as="geometry"/></mxCell><mxCell id="22" value="group1" style="edgeLabel;html=1;align=center;verticalAlign=middle;resizable=0;points=[];" parent="19" vertex="1" connectable="0"><mxGeometry x="0.4069" y="-14" relative="1" as="geometry"><mxPoint as="offset"/></mxGeometry></mxCell><mxCell id="20" style="edgeStyle=orthogonalEdgeStyle;curved=1;orthogonalLoop=1;jettySize=auto;html=1;" parent="1" source="9" target="17" edge="1"><mxGeometry relative="1" as="geometry"/></mxCell><mxCell id="23" value="group1" style="edgeLabel;html=1;align=center;verticalAlign=middle;resizable=0;points=[];" parent="20" vertex="1" connectable="0"><mxGeometry x="-0.1077" y="4" relative="1" as="geometry"><mxPoint as="offset"/></mxGeometry></mxCell><mxCell id="21" style="edgeStyle=orthogonalEdgeStyle;curved=1;orthogonalLoop=1;jettySize=auto;html=1;" parent="1" source="9" target="18" edge="1"><mxGeometry relative="1" as="geometry"/></mxCell><mxCell id="24" value="group2" style="edgeLabel;html=1;align=center;verticalAlign=middle;resizable=0;points=[];" parent="21" vertex="1" connectable="0"><mxGeometry x="0.5067" y="10" relative="1" as="geometry"><mxPoint as="offset"/></mxGeometry></mxCell><mxCell id="9" value="Topic1" style="whiteSpace=wrap;html=1;aspect=fixed;" parent="1" vertex="1"><mxGeometry x="180" y="140" width="80" height="80" as="geometry"/></mxCell><mxCell id="27" value="" style="edgeStyle=orthogonalEdgeStyle;curved=1;orthogonalLoop=1;jettySize=auto;html=1;" parent="1" source="11" target="25" edge="1"><mxGeometry relative="1" as="geometry"/></mxCell><mxCell id="11" value="Topic1" style="whiteSpace=wrap;html=1;aspect=fixed;" parent="1" vertex="1"><mxGeometry x="570" y="140" width="80" height="80" as="geometry"/></mxCell><mxCell id="16" value="Consumer1" style="ellipse;whiteSpace=wrap;html=1;" parent="1" vertex="1"><mxGeometry x="-10" y="-60" width="120" height="80" as="geometry"/></mxCell><mxCell id="17" value="Consumer2" style="ellipse;whiteSpace=wrap;html=1;" parent="1" vertex="1"><mxGeometry x="150" y="-60" width="120" height="80" as="geometry"/></mxCell><mxCell id="18" value="Consumer3" style="ellipse;whiteSpace=wrap;html=1;" parent="1" vertex="1"><mxGeometry x="340" y="-60" width="120" height="80" as="geometry"/></mxCell><mxCell id="25" value="Consumer4" style="ellipse;whiteSpace=wrap;html=1;" parent="1" vertex="1"><mxGeometry x="590" y="-50" width="120" height="80" as="geometry"/></mxCell></root></mxGraphModel></diagram></mxfile>